<svg xmlns="http://www.w3.org/2000/svg" version="1.1" xmlns:xlink="http://www.w3.org/1999/xlink" xmlns:svgjs="http://svgjs.com/svgjs" width="512" height="512" x="0" y="0" viewBox="0 0 511 512" style="enable-background:new 0 0 512 512" xml:space="preserve" class=""><g><path fill="#1f80bb" d="M256.5 512 .5 256l256-256 70.328 70.328-185.637 185.64-.03.032 185.667 185.672zm0 0" data-original="#4ed8df" class=""></path><path fill="#1f80bb" d="m441.46 512-256-256 .028-.031L441.461 0l70.328 70.328-185.64 185.64-.028.032L511.79 441.672zm0 0" data-original="#4ed8df" class=""></path><g fill="#11a9c6"><path d="M326.828 441.672 256.5 512 .5 256l.031-.031h140.66l-.03.031zM185.46 256l.028-.031h140.66l-.027.031L511.79 441.672 441.461 512zm0 0" fill="#094877" data-original="#11a9c6" class=""></path></g></g></svg>