<svg xmlns="http://www.w3.org/2000/svg" version="1.1" xmlns:xlink="http://www.w3.org/1999/xlink" xmlns:svgjs="http://svgjs.com/svgjs" width="512" height="512" x="0" y="0" viewBox="0 0 511 512" style="enable-background:new 0 0 512 512" xml:space="preserve" class=""><g><path fill="#1f80bb" d="m255.79 512 256-256-.028-.031L255.789 0l-70.328 70.328 185.64 185.64.028.032L185.46 441.672zm0 0" data-original="#4ed8df" class=""></path><path fill="#1f80bb" d="m70.828 512 256-256-.027-.031L70.828 0 .5 70.328 186.172 256 .5 441.672zm0 0" data-original="#4ed8df" class=""></path><g fill="#11a9c6"><path d="M185.46 441.672 255.79 512l256-256-.028-.031h-140.66l.027.031zM326.828 256l-.027-.031H186.14l.03.031L.5 441.672 70.828 512zm0 0" fill="#094877" data-original="#11a9c6" class=""></path></g></g></svg>